<svg width="256" height="256" viewBox="0 0 256 256" fill="none" xmlns="http://www.w3.org/2000/svg">
<g clip-path="url(#clip0_43_62)">
<circle cx="128" cy="128" r="119" stroke="#191919" stroke-width="18"/>
<path d="M48.608 110.8C48.608 105.083 50.1013 100.048 53.088 95.696C56.0747 91.2587 60.1707 87.8027 65.376 85.328C70.6667 82.768 76.6827 81.488 83.424 81.488C90.2507 81.488 96.1387 82.6827 101.088 85.072C106.037 87.4613 109.835 90.832 112.48 95.184C115.211 99.536 116.576 104.699 116.576 110.672H95.968C95.968 107.344 94.816 104.741 92.512 102.864C90.208 100.901 87.0933 99.92 83.168 99.92C78.9867 99.92 75.616 100.816 73.056 102.608C70.5813 104.4 69.344 106.875 69.344 110.032C69.344 112.933 70.112 115.152 71.648 116.688C73.184 118.224 75.616 119.333 78.944 120.016L93.152 122.96C101.6 124.667 107.872 127.653 111.968 131.92C116.064 136.101 118.112 141.947 118.112 149.456C118.112 155.515 116.619 160.848 113.632 165.456C110.645 169.979 106.421 173.477 100.96 175.952C95.584 178.427 89.2693 179.664 82.016 179.664C75.0187 179.664 68.8747 178.469 63.584 176.08C58.3787 173.691 54.3253 170.32 51.424 165.968C48.608 161.531 47.2 156.368 47.2 150.48H67.808C67.808 153.893 69.0453 156.539 71.52 158.416C73.9947 160.293 77.536 161.232 82.144 161.232C86.8373 161.232 90.5493 160.379 93.28 158.672C96.0107 156.88 97.376 154.491 97.376 151.504C97.376 148.859 96.6933 146.811 95.328 145.36C94.048 143.909 91.8293 142.885 88.672 142.288L74.208 139.344C65.76 137.637 59.36 134.395 55.008 129.616C50.7413 124.837 48.608 118.565 48.608 110.8ZM144.784 178H123.152L156.944 83.28H177.168L210.832 178H188.816L182.16 158.032H151.568L144.784 178ZM164.368 120.4L157.584 140.624H176.272L169.488 120.4C168.976 118.779 168.464 117.115 167.952 115.408C167.44 113.701 167.099 112.293 166.928 111.184C166.757 112.293 166.416 113.701 165.904 115.408C165.477 117.029 164.965 118.693 164.368 120.4Z" fill="#191919"/>
</g>
<defs>
<clipPath id="clip0_43_62">
<rect width="256" height="256" fill="white"/>
</clipPath>
</defs>
</svg>
